<svg xmlns="http://www.w3.org/2000/svg" width="440" height="242">
  <path d="M9.788 236.74c-1.787-.777-3.25-1.84-3.25-2.362 0-1.32 10.217-9.95 17.895-15.117 7.337-4.936 29.47-15.763 45.698-22.357 12.024-4.885 46.652-16.674 48.976-16.674 1.98 0 1.824-1.556-1.28-12.738-2.51-9.048-2.712-11.2-2.745-29.262-.036-19.846 1.265-31.06 4.026-34.7 1.252-1.65 1.374-1.552 1.477 1.2l.113 3 1.28-2.9c.937-2.122 1.008-3.785.264-6.206-.926-3.018-.46-4.428 5.314-16.1 5-10.087 7.563-14.03 12.16-18.63 3.207-3.2 5.595-6.218 5.306-6.686-.61-.985 7.545-9.448 15.513-16.103 13.36-11.16 38.85-22.817 54.252-24.813 10.787-1.4 43.942.398 51.586 2.795 3.6 1.13 7.71 1.766 9.51 1.474 6.494-1.054 20.528 5.402 35.183 16.186 6.605 4.86 12.47 10.69 12.47 12.394 0 .417 3.782 5.85 8.404 12.077s10.485 15.267 13.03 20.09c5.122 9.714 10.89 26.81 12.527 37.122 1.614 10.177 1.4 30.016-.45 41.536-1.65 10.28-1.503 12.263.914 12.263 2.604 0 23.337 8.307 34.077 13.653 16.935 8.43 43.5 26.96 43.5 30.342 0 .445-1.437 1.3-3.192 1.922-2.937 1.024-4.275.6-16.75-5.313-7.457-3.534-17.88-7.793-23.163-9.465-11.82-3.74-36.507-8.837-51.894-10.715-14.918-1.82-54.74-2.853-62.5-1.62l-6 .952 6 .125c26.557.552 72.793 12.06 101.75 25.323 3.712 1.7 6.75 3.458 6.75 3.905s-1.913 1.33-4.25 1.962c-7.172 1.938-17.905.57-31.75-4.052-15.046-5.02-40.222-10.36-60-12.727-19.544-2.338-62.997-2.337-81.595.002-23.777 3-57.32 10.625-80.01 18.21-6.286 2.102-24.618 3.92-28.023 2.78l-2.87-.96 4.824-3.407c7.427-5.245 14.9-7.807 49.676-17.035 56.515-14.997 119.28-24.882 157.99-24.882 7.09 0 13.13-.382 13.418-.85.713-1.153-26.208-3.898-52.328-5.336-35.104-1.932-73.98 1.092-105.08 8.172-43.838 9.98-85.385 25.168-130.054 47.54-15.994 8-19.976 8.903-26.696 5.982zm127.135-63.05c-.064-1.077-1.105-6.672-2.314-12.432-4.115-19.598-3.878-30.513 1.11-51.027 6.67-27.443 28.306-53.733 55.32-67.224 28.497-14.232 64.418-14.28 92.75-.123 11.156 5.574 17.686 10.22 27.034 19.23 13.394 12.912 21.915 26.578 27.505 44.116 5.364 16.828 6.392 36.502 2.814 53.862l-1.31 6.362 3.104 1.252c1.707.69 4.502 1.514 6.21 1.834 2.907.545 3.182.335 4.256-3.25 3.943-13.16 3.786-42.576-.274-51.465-1.28-2.802-2.66-6.67-3.065-8.595-2.73-12.958-15.098-34.296-27.324-47.143-20.312-21.345-41.476-32.4-69.836-36.484-10.296-1.482-13.81-1.555-26.57-.552-8.087.636-16.412 1.798-18.5 2.582l-10.796 4.054c-8.117 3.048-19.204 8.636-25.13 12.666-6.86 4.666-20.145 17.735-27.778 27.33-6.983 8.778-15.555 24.556-17.058 31.396-.378 1.72-1.102 3.383-1.6 3.697s-.923 1.716-.923 3.117-.704 5.264-1.565 8.585c-4.4 16.985-3.23 40.27 3.085 61.408.26.873 1.652.863 5.663-.04 4.282-.965 5.294-1.58 5.202-3.157zM335.39 62.887c-2.998-3.62-7.313-10.656-6.536-10.656.65 0 10.685 12.575 10.685 13.392 0 1.37-1.652.28-4.15-2.736zm-98.35-48.656c-2.47-.628-1.982-.784 2.75-.882 3.246-.067 5.75.317 5.75.882 0 1.134-4.042 1.134-8.5 0z" fill="#f37122"/>
</svg>